<svg xmlns="http://www.w3.org/2000/svg" width="44" height="53" viewBox="0 0 44 53">
  <g id="Group_68" data-name="Group 68" transform="translate(-491 -356)">
    <path id="Subtraction_1" data-name="Subtraction 1" d="M18,48H6a6.007,6.007,0,0,1-6-6V6A6.007,6.007,0,0,1,6,0H31a6.007,6.007,0,0,1,6,6V25.73A15,15,0,0,0,15,39a14.873,14.873,0,0,0,3,9Z" transform="translate(491 356)" fill="#c9bbcf"/>
    <circle id="Ellipse_2" data-name="Ellipse 2" cx="13.5" cy="13.5" r="13.5" transform="translate(508 382)" fill="#585974"/>
    <g id="Group_1" data-name="Group 1" transform="translate(-154.362 3.117)">
      <line id="Line_1" data-name="Line 1" y2="8.234" transform="translate(675.5 387.883)" fill="none" stroke="#898aa6" stroke-linecap="round" stroke-width="2"/>
      <line id="Line_2" data-name="Line 2" y2="8.275" transform="translate(679.638 392) rotate(90)" fill="none" stroke="#898aa6" stroke-linecap="round" stroke-width="2"/>
    </g>
    <line id="Line_3" data-name="Line 3" x1="24.5" transform="translate(497.25 365.117)" fill="none" stroke="#898aa6" stroke-linecap="round" stroke-width="2"/>
    <line id="Line_4" data-name="Line 4" x1="24.5" transform="translate(497.25 369.117)" fill="none" stroke="#898aa6" stroke-linecap="round" stroke-width="2"/>
    <line id="Line_5" data-name="Line 5" x1="14.25" transform="translate(497.25 373.117)" fill="none" stroke="#898aa6" stroke-linecap="round" stroke-width="2"/>
  </g>
</svg>
