<svg xmlns="http://www.w3.org/2000/svg" xmlns:xlink="http://www.w3.org/1999/xlink" width="375" height="1240" viewBox="0 0 375 1240">
  <defs>
    <clipPath id="clip-path">
      <path id="Shape" d="M338.667-26.667h16.667A2.667,2.667,0,0,1,358-24v6h0a2.667,2.667,0,0,1-2.667,2.667H338.667A2.667,2.667,0,0,1,336-18v-6h0A2.667,2.667,0,0,1,338.667-26.667Z" transform="translate(-336 26.667)" fill="none" clip-rule="evenodd"/>
    </clipPath>
    <clipPath id="clip-path-2">
      <path id="Shape-2" data-name="Shape" d="M359-23v4a2.17,2.17,0,0,0,1.328-2A2.17,2.17,0,0,0,359-23" transform="translate(-359 23)" fill="#fff"/>
    </clipPath>
    <clipPath id="clip-path-3">
      <path id="Shape-3" data-name="Shape" d="M339.333-24.667h15.333A1.333,1.333,0,0,1,356-23.333v4.667h0a1.333,1.333,0,0,1-1.333,1.333H339.333A1.333,1.333,0,0,1,338-18.667v-4.667h0A1.333,1.333,0,0,1,339.333-24.667Z" transform="translate(-338 24.667)" fill="#fff"/>
    </clipPath>
    <clipPath id="clip-path-4">
      <path id="Shape-4" data-name="Shape" d="M323.33-24.392a8.64,8.64,0,0,1,5.953,2.378.308.308,0,0,0,.433,0l1.156-1.167a.322.322,0,0,0,.093-.229.322.322,0,0,0-.1-.227,10.9,10.9,0,0,0-15.08,0,.322.322,0,0,0-.1.227.322.322,0,0,0,.093.229l1.156,1.167a.308.308,0,0,0,.433,0,8.641,8.641,0,0,1,5.954-2.378Zm0,3.8a4.907,4.907,0,0,1,3.294,1.27.31.31,0,0,0,.433-.006l1.155-1.167a.322.322,0,0,0,.094-.23.322.322,0,0,0-.1-.229,7.159,7.159,0,0,0-9.752,0,.322.322,0,0,0-.1.229.322.322,0,0,0,.094.23l1.154,1.167a.31.31,0,0,0,.433.006,4.907,4.907,0,0,1,3.292-1.27Zm2.219,2.784a.314.314,0,0,0,.094-.231.314.314,0,0,0-.1-.226,3.422,3.422,0,0,0-4.419,0,.314.314,0,0,0-.1.226.314.314,0,0,0,.094.231l2,2.016a.311.311,0,0,0,.222.093.312.312,0,0,0,.222-.093Z" transform="translate(-315.694 26.669)" fill="#fff"/>
    </clipPath>
    <clipPath id="clip-path-5">
      <path id="Shape-5" data-name="Shape" d="M294.667-19.667h1a1,1,0,0,1,1,1v2a1,1,0,0,1-1,1h-1a1,1,0,0,1-1-1v-2a1,1,0,0,1,1-1Zm4.667-2h1a1,1,0,0,1,1,1v4a1,1,0,0,1-1,1h-1a1,1,0,0,1-1-1v-4A1,1,0,0,1,299.333-21.667ZM304-24h1a1,1,0,0,1,1,1v6.333a1,1,0,0,1-1,1h-1a1,1,0,0,1-1-1V-23A1,1,0,0,1,304-24Zm4.667-2.333h1a1,1,0,0,1,1,1v8.667a1,1,0,0,1-1,1h-1a1,1,0,0,1-1-1v-8.667a1,1,0,0,1,1-1Z" transform="translate(-293.667 26.333)" fill="#fff"/>
    </clipPath>
    <clipPath id="clip-path-6">
      <rect width="387" height="1146" fill="none"/>
    </clipPath>
    <clipPath id="clip-Update_Todo">
      <rect width="375" height="1240"/>
    </clipPath>
  </defs>
  <g id="Update_Todo" data-name="Update Todo" clip-path="url(#clip-Update_Todo)">
    <rect width="375" height="1240" fill="#898aa6"/>
    <rect id="Rectangle_1" data-name="Rectangle 1" width="375" height="100" fill="#898aa6"/>
    <g id="top" transform="translate(0 2)" opacity="0.449">
      <path id="bg" d="M0-44H375v24.7H0Z" transform="translate(0 44)" fill="none"/>
      <g id="status_bar_dark" data-name="status bar/dark">
        <path id="Background" d="M0-44H375v24.7H0Z" transform="translate(0 44)" fill="none"/>
        <g id="Battery" transform="translate(336 7.095)">
          <g id="Border" clip-path="url(#clip-path)">
            <path id="Fill" d="M2.667,0H19.333A2.667,2.667,0,0,1,22,2.667v6h0a2.667,2.667,0,0,1-2.667,2.667H2.667A2.667,2.667,0,0,1,0,8.667v-6H0A2.667,2.667,0,0,1,2.667,0Z" fill="none" stroke="rgba(255,255,255,0.35)" stroke-width="2"/>
          </g>
          <g id="Cap" transform="translate(23 3.667)" clip-path="url(#clip-path-2)">
            <path id="Fill-2" data-name="Fill" d="M354-28h11.328v14H354Z" transform="translate(-359 23)" fill="#fff"/>
          </g>
          <g id="Capacity" transform="translate(2 2)" clip-path="url(#clip-path-3)">
            <path id="Fill-3" data-name="Fill" d="M333-29.667h28v17.333H333Z" transform="translate(-338 24.667)" fill="#fff"/>
          </g>
        </g>
        <g id="Wifi" transform="translate(315.694 7.208)">
          <g id="Wifi-2" data-name="Wifi" clip-path="url(#clip-path-4)">
            <path id="Fill-4" data-name="Fill" d="M310.694-31.669h25.272V-10.7H310.694Z" transform="translate(-315.694 26.669)" fill="#fff"/>
          </g>
        </g>
        <g id="Cellular_Connection" data-name="Cellular Connection" transform="translate(293.667 7.44)">
          <g id="Cellular_Connection-2" data-name="Cellular Connection" clip-path="url(#clip-path-5)">
            <path id="Fill-5" data-name="Fill" d="M288.667-31.333h27v20.667h-27Z" transform="translate(-293.667 26.333)" fill="#fff"/>
          </g>
        </g>
        <g id="Bars___Time_Black" data-name="Bars/_/Time Black" transform="translate(32.823 8.485)">
          <path id="_Time" data-name="↳ Time" d="M16.433,13.239c2.509,0,4-1.962,4-5.284a6.336,6.336,0,0,0-.7-3.117A3.5,3.5,0,0,0,16.487,2.89a3.43,3.43,0,0,0-3.664,3.466A3.159,3.159,0,0,0,16.07,9.637,2.727,2.727,0,0,0,18.627,8.16h.116c0,2.256-.854,3.6-2.3,3.6a1.716,1.716,0,0,1-1.729-1.21H12.96A3.324,3.324,0,0,0,16.433,13.239Zm.062-5A1.865,1.865,0,0,1,14.553,6.3a1.948,1.948,0,1,1,3.9.027A1.874,1.874,0,0,1,16.494,8.235Zm7.038,3.719a1.08,1.08,0,1,0-1.094-1.08A1.048,1.048,0,0,0,23.532,11.954Zm0-5.127a1.043,1.043,0,0,0,1.094-1.073,1.094,1.094,0,0,0-2.187,0A1.047,1.047,0,0,0,23.532,6.827ZM31.445,13h1.688V11.161h1.333V9.671H33.134V3.136H30.646c-1.743,2.625-3.131,4.819-4.02,6.453v1.572h4.819ZM28.26,9.609c1.148-2.023,2.174-3.644,3.117-5.038h.1V9.712H28.26ZM38.511,13h1.764V3.136H38.518L35.94,4.94v1.7l2.454-1.723h.116Z" transform="translate(-12.823 -2.89)" fill="#fff"/>
        </g>
      </g>
    </g>
    <text id="Update_To_Do_s" data-name="Update To Do’s" transform="translate(127 79)" fill="#fff" font-size="16" font-family="Poppins-SemiBold, Poppins" font-weight="600"><tspan x="0" y="0">Update To Do’s</tspan></text>
    <path id="Rectangle_2" data-name="Rectangle 2" d="M20,0H355a20,20,0,0,1,20,20V1140a0,0,0,0,1,0,0H0a0,0,0,0,1,0,0V20A20,20,0,0,1,20,0Z" transform="translate(0 100)" fill="#c9bbcf"/>
    <g id="Repeat_Grid_2" data-name="Repeat Grid 2" transform="translate(-6 94)" clip-path="url(#clip-path-6)">
      <g transform="translate(6 -94)">
        <g id="Group_44" data-name="Group 44">
          <g id="Group_29" data-name="Group 29">
            <g id="Group_25" data-name="Group 25">
              <g id="Group_19" data-name="Group 19" transform="translate(-318 -176)">
                <path id="Path_4" data-name="Path 4" d="M10,0H317a10,10,0,0,1,10,10V58a10,10,0,0,1-10,10H10A10,10,0,0,1,0,58V10A10,10,0,0,1,10,0Z" transform="translate(342 300)" fill="#898aa6"/>
                <rect id="Rectangle_8" data-name="Rectangle 8" width="56" height="52" rx="10" transform="translate(350 308)" fill="#c9bbcf"/>
              </g>
              <g id="Group_20" data-name="Group 20" transform="translate(0 3)">
                <text id="_23" data-name="23" transform="translate(49 158)" fill="#fff" font-size="20" font-family="Poppins-SemiBold, Poppins" font-weight="600"><tspan x="0" y="0">23</tspan></text>
                <text id="JAN" transform="translate(48 170)" fill="#fff" font-size="12" font-family="Poppins-SemiBold, Poppins" font-weight="600"><tspan x="0" y="0">JAN</tspan></text>
              </g>
              <g id="Group_21" data-name="Group 21" transform="translate(0 1)">
                <text id="Gym" transform="translate(98 155)" fill="#fff" font-size="14" font-family="Poppins-SemiBold, Poppins" font-weight="600"><tspan x="0" y="0">Gym</tspan></text>
                <text id="_10_push_ups" data-name="10 push ups" transform="translate(98 174)" fill="#fff" font-size="10" font-family="Poppins-SemiBold, Poppins" font-weight="600" opacity="0.505"><tspan x="0" y="0">10 push ups</tspan></text>
              </g>
              <circle id="Ellipse_4" data-name="Ellipse 4" cx="5" cy="5" r="5" transform="translate(336 129)" fill="#b3e38f"/>
            </g>
          </g>
          <g id="Group_36" data-name="Group 36" transform="translate(-143.41 -191.55)">
            <rect id="Rectangle_11" data-name="Rectangle 11" width="5.081" height="24.386" rx="1" transform="matrix(0.799, 0.602, -0.602, 0.799, 461.752, 339.675)" fill="#585974"/>
            <rect id="Rectangle_12" data-name="Rectangle 12" width="5.081" height="3.556" rx="1" transform="matrix(0.799, 0.602, -0.602, 0.799, 464.09, 336.523)" fill="#585974"/>
            <path id="Polygon_1" data-name="Polygon 1" d="M2.441,1.457a1,1,0,0,1,1.722,0L5.713,4.08a1,1,0,0,1-.861,1.509h-3.1A1,1,0,0,1,.892,4.08Z" transform="matrix(-0.788, -0.616, 0.616, -0.788, 447.958, 367.55)" fill="#585974"/>
          </g>
        </g>
        <g id="Group_43" data-name="Group 43">
          <g id="Group_25-2" data-name="Group 25" transform="translate(0 88)">
            <g id="Group_19-2" data-name="Group 19" transform="translate(-318 -176)">
              <rect id="Rectangle_7" data-name="Rectangle 7" width="327" height="68" rx="10" transform="translate(342 300)" fill="#898aa6"/>
              <rect id="Rectangle_8-2" data-name="Rectangle 8" width="56" height="52" rx="10" transform="translate(350 308)" fill="#c9bbcf"/>
            </g>
            <g id="Group_20-2" data-name="Group 20" transform="translate(-1 3)">
              <text id="_03" data-name="03" transform="translate(49 158)" fill="#fff" font-size="20" font-family="Poppins-SemiBold, Poppins" font-weight="600"><tspan x="0" y="0">03</tspan></text>
              <text id="FEB" transform="translate(51 170)" fill="#fff" font-size="12" font-family="Poppins-SemiBold, Poppins" font-weight="600"><tspan x="0" y="0">FEB</tspan></text>
            </g>
            <g id="Group_21-2" data-name="Group 21" transform="translate(0 1)">
              <text id="Going_Super_Market_" data-name="Going Super Market…" transform="translate(98 155)" fill="#fff" font-size="14" font-family="Poppins-SemiBold, Poppins" font-weight="600"><tspan x="0" y="0">Going Super Market…</tspan></text>
              <text id="Buy_vegetables_and_fruits" data-name="Buy vegetables and fruits" transform="translate(98 174)" fill="#fff" font-size="10" font-family="Poppins-SemiBold, Poppins" font-weight="600" opacity="0.499"><tspan x="0" y="0">Buy vegetables and fruits</tspan></text>
            </g>
            <circle id="Ellipse_4-2" data-name="Ellipse 4" cx="5" cy="5" r="5" transform="translate(336 129)" fill="#f89e5c"/>
          </g>
          <g id="Group_42" data-name="Group 42" transform="translate(-146.41 -106.523)">
            <rect id="Rectangle_11-2" data-name="Rectangle 11" width="5.081" height="24.386" rx="1" transform="matrix(0.799, 0.602, -0.602, 0.799, 461.752, 339.675)" fill="#585974"/>
            <rect id="Rectangle_12-2" data-name="Rectangle 12" width="5.081" height="3.556" rx="1" transform="matrix(0.799, 0.602, -0.602, 0.799, 464.09, 336.523)" fill="#585974"/>
            <path id="Polygon_1-2" data-name="Polygon 1" d="M2.441,1.457a1,1,0,0,1,1.722,0L5.713,4.08a1,1,0,0,1-.861,1.509h-3.1A1,1,0,0,1,.892,4.08Z" transform="matrix(-0.788, -0.616, 0.616, -0.788, 447.958, 367.55)" fill="#585974"/>
          </g>
        </g>
      </g>
      <g transform="translate(6 83)">
        <g id="Group_44-2" data-name="Group 44">
          <g id="Group_29-2" data-name="Group 29">
            <g id="Group_25-3" data-name="Group 25">
              <g id="Group_19-3" data-name="Group 19" transform="translate(-318 -176)">
                <path id="Path_4-2" data-name="Path 4" d="M10,0H317a10,10,0,0,1,10,10V58a10,10,0,0,1-10,10H10A10,10,0,0,1,0,58V10A10,10,0,0,1,10,0Z" transform="translate(342 300)" fill="#898aa6"/>
                <rect id="Rectangle_8-3" data-name="Rectangle 8" width="56" height="52" rx="10" transform="translate(350 308)" fill="#c9bbcf"/>
              </g>
              <g id="Group_20-3" data-name="Group 20" transform="translate(0 3)">
                <text id="_23-2" data-name="23" transform="translate(49 158)" fill="#fff" font-size="20" font-family="Poppins-SemiBold, Poppins" font-weight="600"><tspan x="0" y="0">23</tspan></text>
                <text id="JAN-2" data-name="JAN" transform="translate(48 170)" fill="#fff" font-size="12" font-family="Poppins-SemiBold, Poppins" font-weight="600"><tspan x="0" y="0">JAN</tspan></text>
              </g>
              <g id="Group_21-3" data-name="Group 21" transform="translate(0 1)">
                <text id="Gym-2" data-name="Gym" transform="translate(98 155)" fill="#fff" font-size="14" font-family="Poppins-SemiBold, Poppins" font-weight="600"><tspan x="0" y="0">Gym</tspan></text>
                <text id="_10_push_ups-2" data-name="10 push ups" transform="translate(98 174)" fill="#fff" font-size="10" font-family="Poppins-SemiBold, Poppins" font-weight="600" opacity="0.505"><tspan x="0" y="0">10 push ups</tspan></text>
              </g>
              <circle id="Ellipse_4-3" data-name="Ellipse 4" cx="5" cy="5" r="5" transform="translate(336 129)" fill="#b3e38f"/>
            </g>
          </g>
          <g id="Group_36-2" data-name="Group 36" transform="translate(-143.41 -191.55)">
            <rect id="Rectangle_11-3" data-name="Rectangle 11" width="5.081" height="24.386" rx="1" transform="matrix(0.799, 0.602, -0.602, 0.799, 461.752, 339.675)" fill="#585974"/>
            <rect id="Rectangle_12-3" data-name="Rectangle 12" width="5.081" height="3.556" rx="1" transform="matrix(0.799, 0.602, -0.602, 0.799, 464.09, 336.523)" fill="#585974"/>
            <path id="Polygon_1-3" data-name="Polygon 1" d="M2.441,1.457a1,1,0,0,1,1.722,0L5.713,4.08a1,1,0,0,1-.861,1.509h-3.1A1,1,0,0,1,.892,4.08Z" transform="matrix(-0.788, -0.616, 0.616, -0.788, 447.958, 367.55)" fill="#585974"/>
          </g>
        </g>
        <g id="Group_43-2" data-name="Group 43">
          <g id="Group_25-4" data-name="Group 25" transform="translate(0 88)">
            <g id="Group_19-4" data-name="Group 19" transform="translate(-318 -176)">
              <rect id="Rectangle_7-2" data-name="Rectangle 7" width="327" height="68" rx="10" transform="translate(342 300)" fill="#898aa6"/>
              <rect id="Rectangle_8-4" data-name="Rectangle 8" width="56" height="52" rx="10" transform="translate(350 308)" fill="#c9bbcf"/>
            </g>
            <g id="Group_20-4" data-name="Group 20" transform="translate(-1 3)">
              <text id="_03-2" data-name="03" transform="translate(49 158)" fill="#fff" font-size="20" font-family="Poppins-SemiBold, Poppins" font-weight="600"><tspan x="0" y="0">03</tspan></text>
              <text id="FEB-2" data-name="FEB" transform="translate(51 170)" fill="#fff" font-size="12" font-family="Poppins-SemiBold, Poppins" font-weight="600"><tspan x="0" y="0">FEB</tspan></text>
            </g>
            <g id="Group_21-4" data-name="Group 21" transform="translate(0 1)">
              <text id="Going_Super_Market_2" data-name="Going Super Market…" transform="translate(98 155)" fill="#fff" font-size="14" font-family="Poppins-SemiBold, Poppins" font-weight="600"><tspan x="0" y="0">Going Super Market…</tspan></text>
              <text id="Buy_vegetables_and_fruits-2" data-name="Buy vegetables and fruits" transform="translate(98 174)" fill="#fff" font-size="10" font-family="Poppins-SemiBold, Poppins" font-weight="600" opacity="0.499"><tspan x="0" y="0">Buy vegetables and fruits</tspan></text>
            </g>
            <circle id="Ellipse_4-4" data-name="Ellipse 4" cx="5" cy="5" r="5" transform="translate(336 129)" fill="#f89e5c"/>
          </g>
          <g id="Group_42-2" data-name="Group 42" transform="translate(-146.41 -106.523)">
            <rect id="Rectangle_11-4" data-name="Rectangle 11" width="5.081" height="24.386" rx="1" transform="matrix(0.799, 0.602, -0.602, 0.799, 461.752, 339.675)" fill="#585974"/>
            <rect id="Rectangle_12-4" data-name="Rectangle 12" width="5.081" height="3.556" rx="1" transform="matrix(0.799, 0.602, -0.602, 0.799, 464.09, 336.523)" fill="#585974"/>
            <path id="Polygon_1-4" data-name="Polygon 1" d="M2.441,1.457a1,1,0,0,1,1.722,0L5.713,4.08a1,1,0,0,1-.861,1.509h-3.1A1,1,0,0,1,.892,4.08Z" transform="matrix(-0.788, -0.616, 0.616, -0.788, 447.958, 367.55)" fill="#585974"/>
          </g>
        </g>
      </g>
      <g transform="translate(6 260)">
        <g id="Group_44-3" data-name="Group 44">
          <g id="Group_29-3" data-name="Group 29">
            <g id="Group_25-5" data-name="Group 25">
              <g id="Group_19-5" data-name="Group 19" transform="translate(-318 -176)">
                <path id="Path_4-3" data-name="Path 4" d="M10,0H317a10,10,0,0,1,10,10V58a10,10,0,0,1-10,10H10A10,10,0,0,1,0,58V10A10,10,0,0,1,10,0Z" transform="translate(342 300)" fill="#898aa6"/>
                <rect id="Rectangle_8-5" data-name="Rectangle 8" width="56" height="52" rx="10" transform="translate(350 308)" fill="#c9bbcf"/>
              </g>
              <g id="Group_20-5" data-name="Group 20" transform="translate(0 3)">
                <text id="_23-3" data-name="23" transform="translate(49 158)" fill="#fff" font-size="20" font-family="Poppins-SemiBold, Poppins" font-weight="600"><tspan x="0" y="0">23</tspan></text>
                <text id="JAN-3" data-name="JAN" transform="translate(48 170)" fill="#fff" font-size="12" font-family="Poppins-SemiBold, Poppins" font-weight="600"><tspan x="0" y="0">JAN</tspan></text>
              </g>
              <g id="Group_21-5" data-name="Group 21" transform="translate(0 1)">
                <text id="Gym-3" data-name="Gym" transform="translate(98 155)" fill="#fff" font-size="14" font-family="Poppins-SemiBold, Poppins" font-weight="600"><tspan x="0" y="0">Gym</tspan></text>
                <text id="_10_push_ups-3" data-name="10 push ups" transform="translate(98 174)" fill="#fff" font-size="10" font-family="Poppins-SemiBold, Poppins" font-weight="600" opacity="0.505"><tspan x="0" y="0">10 push ups</tspan></text>
              </g>
              <circle id="Ellipse_4-5" data-name="Ellipse 4" cx="5" cy="5" r="5" transform="translate(336 129)" fill="#b3e38f"/>
            </g>
          </g>
          <g id="Group_36-3" data-name="Group 36" transform="translate(-143.41 -191.55)">
            <rect id="Rectangle_11-5" data-name="Rectangle 11" width="5.081" height="24.386" rx="1" transform="matrix(0.799, 0.602, -0.602, 0.799, 461.752, 339.675)" fill="#585974"/>
            <rect id="Rectangle_12-5" data-name="Rectangle 12" width="5.081" height="3.556" rx="1" transform="matrix(0.799, 0.602, -0.602, 0.799, 464.09, 336.523)" fill="#585974"/>
            <path id="Polygon_1-5" data-name="Polygon 1" d="M2.441,1.457a1,1,0,0,1,1.722,0L5.713,4.08a1,1,0,0,1-.861,1.509h-3.1A1,1,0,0,1,.892,4.08Z" transform="matrix(-0.788, -0.616, 0.616, -0.788, 447.958, 367.55)" fill="#585974"/>
          </g>
        </g>
        <g id="Group_43-3" data-name="Group 43">
          <g id="Group_25-6" data-name="Group 25" transform="translate(0 88)">
            <g id="Group_19-6" data-name="Group 19" transform="translate(-318 -176)">
              <rect id="Rectangle_7-3" data-name="Rectangle 7" width="327" height="68" rx="10" transform="translate(342 300)" fill="#898aa6"/>
              <rect id="Rectangle_8-6" data-name="Rectangle 8" width="56" height="52" rx="10" transform="translate(350 308)" fill="#c9bbcf"/>
            </g>
            <g id="Group_20-6" data-name="Group 20" transform="translate(-1 3)">
              <text id="_03-3" data-name="03" transform="translate(49 158)" fill="#fff" font-size="20" font-family="Poppins-SemiBold, Poppins" font-weight="600"><tspan x="0" y="0">03</tspan></text>
              <text id="FEB-3" data-name="FEB" transform="translate(51 170)" fill="#fff" font-size="12" font-family="Poppins-SemiBold, Poppins" font-weight="600"><tspan x="0" y="0">FEB</tspan></text>
            </g>
            <g id="Group_21-6" data-name="Group 21" transform="translate(0 1)">
              <text id="Going_Super_Market_3" data-name="Going Super Market…" transform="translate(98 155)" fill="#fff" font-size="14" font-family="Poppins-SemiBold, Poppins" font-weight="600"><tspan x="0" y="0">Going Super Market…</tspan></text>
              <text id="Buy_vegetables_and_fruits-3" data-name="Buy vegetables and fruits" transform="translate(98 174)" fill="#fff" font-size="10" font-family="Poppins-SemiBold, Poppins" font-weight="600" opacity="0.499"><tspan x="0" y="0">Buy vegetables and fruits</tspan></text>
            </g>
            <circle id="Ellipse_4-6" data-name="Ellipse 4" cx="5" cy="5" r="5" transform="translate(336 129)" fill="#f89e5c"/>
          </g>
          <g id="Group_42-3" data-name="Group 42" transform="translate(-146.41 -106.523)">
            <rect id="Rectangle_11-6" data-name="Rectangle 11" width="5.081" height="24.386" rx="1" transform="matrix(0.799, 0.602, -0.602, 0.799, 461.752, 339.675)" fill="#585974"/>
            <rect id="Rectangle_12-6" data-name="Rectangle 12" width="5.081" height="3.556" rx="1" transform="matrix(0.799, 0.602, -0.602, 0.799, 464.09, 336.523)" fill="#585974"/>
            <path id="Polygon_1-6" data-name="Polygon 1" d="M2.441,1.457a1,1,0,0,1,1.722,0L5.713,4.08a1,1,0,0,1-.861,1.509h-3.1A1,1,0,0,1,.892,4.08Z" transform="matrix(-0.788, -0.616, 0.616, -0.788, 447.958, 367.55)" fill="#585974"/>
          </g>
        </g>
      </g>
      <g transform="translate(6 437)">
        <g id="Group_44-4" data-name="Group 44">
          <g id="Group_29-4" data-name="Group 29">
            <g id="Group_25-7" data-name="Group 25">
              <g id="Group_19-7" data-name="Group 19" transform="translate(-318 -176)">
                <path id="Path_4-4" data-name="Path 4" d="M10,0H317a10,10,0,0,1,10,10V58a10,10,0,0,1-10,10H10A10,10,0,0,1,0,58V10A10,10,0,0,1,10,0Z" transform="translate(342 300)" fill="#898aa6"/>
                <rect id="Rectangle_8-7" data-name="Rectangle 8" width="56" height="52" rx="10" transform="translate(350 308)" fill="#c9bbcf"/>
              </g>
              <g id="Group_20-7" data-name="Group 20" transform="translate(0 3)">
                <text id="_23-4" data-name="23" transform="translate(49 158)" fill="#fff" font-size="20" font-family="Poppins-SemiBold, Poppins" font-weight="600"><tspan x="0" y="0">23</tspan></text>
                <text id="JAN-4" data-name="JAN" transform="translate(48 170)" fill="#fff" font-size="12" font-family="Poppins-SemiBold, Poppins" font-weight="600"><tspan x="0" y="0">JAN</tspan></text>
              </g>
              <g id="Group_21-7" data-name="Group 21" transform="translate(0 1)">
                <text id="Gym-4" data-name="Gym" transform="translate(98 155)" fill="#fff" font-size="14" font-family="Poppins-SemiBold, Poppins" font-weight="600"><tspan x="0" y="0">Gym</tspan></text>
                <text id="_10_push_ups-4" data-name="10 push ups" transform="translate(98 174)" fill="#fff" font-size="10" font-family="Poppins-SemiBold, Poppins" font-weight="600" opacity="0.505"><tspan x="0" y="0">10 push ups</tspan></text>
              </g>
              <circle id="Ellipse_4-7" data-name="Ellipse 4" cx="5" cy="5" r="5" transform="translate(336 129)" fill="#b3e38f"/>
            </g>
          </g>
          <g id="Group_36-4" data-name="Group 36" transform="translate(-143.41 -191.55)">
            <rect id="Rectangle_11-7" data-name="Rectangle 11" width="5.081" height="24.386" rx="1" transform="matrix(0.799, 0.602, -0.602, 0.799, 461.752, 339.675)" fill="#585974"/>
            <rect id="Rectangle_12-7" data-name="Rectangle 12" width="5.081" height="3.556" rx="1" transform="matrix(0.799, 0.602, -0.602, 0.799, 464.09, 336.523)" fill="#585974"/>
            <path id="Polygon_1-7" data-name="Polygon 1" d="M2.441,1.457a1,1,0,0,1,1.722,0L5.713,4.08a1,1,0,0,1-.861,1.509h-3.1A1,1,0,0,1,.892,4.08Z" transform="matrix(-0.788, -0.616, 0.616, -0.788, 447.958, 367.55)" fill="#585974"/>
          </g>
        </g>
        <g id="Group_43-4" data-name="Group 43">
          <g id="Group_25-8" data-name="Group 25" transform="translate(0 88)">
            <g id="Group_19-8" data-name="Group 19" transform="translate(-318 -176)">
              <rect id="Rectangle_7-4" data-name="Rectangle 7" width="327" height="68" rx="10" transform="translate(342 300)" fill="#898aa6"/>
              <rect id="Rectangle_8-8" data-name="Rectangle 8" width="56" height="52" rx="10" transform="translate(350 308)" fill="#c9bbcf"/>
            </g>
            <g id="Group_20-8" data-name="Group 20" transform="translate(-1 3)">
              <text id="_03-4" data-name="03" transform="translate(49 158)" fill="#fff" font-size="20" font-family="Poppins-SemiBold, Poppins" font-weight="600"><tspan x="0" y="0">03</tspan></text>
              <text id="FEB-4" data-name="FEB" transform="translate(51 170)" fill="#fff" font-size="12" font-family="Poppins-SemiBold, Poppins" font-weight="600"><tspan x="0" y="0">FEB</tspan></text>
            </g>
            <g id="Group_21-8" data-name="Group 21" transform="translate(0 1)">
              <text id="Going_Super_Market_4" data-name="Going Super Market…" transform="translate(98 155)" fill="#fff" font-size="14" font-family="Poppins-SemiBold, Poppins" font-weight="600"><tspan x="0" y="0">Going Super Market…</tspan></text>
              <text id="Buy_vegetables_and_fruits-4" data-name="Buy vegetables and fruits" transform="translate(98 174)" fill="#fff" font-size="10" font-family="Poppins-SemiBold, Poppins" font-weight="600" opacity="0.499"><tspan x="0" y="0">Buy vegetables and fruits</tspan></text>
            </g>
            <circle id="Ellipse_4-8" data-name="Ellipse 4" cx="5" cy="5" r="5" transform="translate(336 129)" fill="#f89e5c"/>
          </g>
          <g id="Group_42-4" data-name="Group 42" transform="translate(-146.41 -106.523)">
            <rect id="Rectangle_11-8" data-name="Rectangle 11" width="5.081" height="24.386" rx="1" transform="matrix(0.799, 0.602, -0.602, 0.799, 461.752, 339.675)" fill="#585974"/>
            <rect id="Rectangle_12-8" data-name="Rectangle 12" width="5.081" height="3.556" rx="1" transform="matrix(0.799, 0.602, -0.602, 0.799, 464.09, 336.523)" fill="#585974"/>
            <path id="Polygon_1-8" data-name="Polygon 1" d="M2.441,1.457a1,1,0,0,1,1.722,0L5.713,4.08a1,1,0,0,1-.861,1.509h-3.1A1,1,0,0,1,.892,4.08Z" transform="matrix(-0.788, -0.616, 0.616, -0.788, 447.958, 367.55)" fill="#585974"/>
          </g>
        </g>
      </g>
      <g transform="translate(6 614)">
        <g id="Group_44-5" data-name="Group 44">
          <g id="Group_29-5" data-name="Group 29">
            <g id="Group_25-9" data-name="Group 25">
              <g id="Group_19-9" data-name="Group 19" transform="translate(-318 -176)">
                <path id="Path_4-5" data-name="Path 4" d="M10,0H317a10,10,0,0,1,10,10V58a10,10,0,0,1-10,10H10A10,10,0,0,1,0,58V10A10,10,0,0,1,10,0Z" transform="translate(342 300)" fill="#898aa6"/>
                <rect id="Rectangle_8-9" data-name="Rectangle 8" width="56" height="52" rx="10" transform="translate(350 308)" fill="#c9bbcf"/>
              </g>
              <g id="Group_20-9" data-name="Group 20" transform="translate(0 3)">
                <text id="_23-5" data-name="23" transform="translate(49 158)" fill="#fff" font-size="20" font-family="Poppins-SemiBold, Poppins" font-weight="600"><tspan x="0" y="0">23</tspan></text>
                <text id="JAN-5" data-name="JAN" transform="translate(48 170)" fill="#fff" font-size="12" font-family="Poppins-SemiBold, Poppins" font-weight="600"><tspan x="0" y="0">JAN</tspan></text>
              </g>
              <g id="Group_21-9" data-name="Group 21" transform="translate(0 1)">
                <text id="Gym-5" data-name="Gym" transform="translate(98 155)" fill="#fff" font-size="14" font-family="Poppins-SemiBold, Poppins" font-weight="600"><tspan x="0" y="0">Gym</tspan></text>
                <text id="_10_push_ups-5" data-name="10 push ups" transform="translate(98 174)" fill="#fff" font-size="10" font-family="Poppins-SemiBold, Poppins" font-weight="600" opacity="0.505"><tspan x="0" y="0">10 push ups</tspan></text>
              </g>
              <circle id="Ellipse_4-9" data-name="Ellipse 4" cx="5" cy="5" r="5" transform="translate(336 129)" fill="#b3e38f"/>
            </g>
          </g>
          <g id="Group_36-5" data-name="Group 36" transform="translate(-143.41 -191.55)">
            <rect id="Rectangle_11-9" data-name="Rectangle 11" width="5.081" height="24.386" rx="1" transform="matrix(0.799, 0.602, -0.602, 0.799, 461.752, 339.675)" fill="#585974"/>
            <rect id="Rectangle_12-9" data-name="Rectangle 12" width="5.081" height="3.556" rx="1" transform="matrix(0.799, 0.602, -0.602, 0.799, 464.09, 336.523)" fill="#585974"/>
            <path id="Polygon_1-9" data-name="Polygon 1" d="M2.441,1.457a1,1,0,0,1,1.722,0L5.713,4.08a1,1,0,0,1-.861,1.509h-3.1A1,1,0,0,1,.892,4.08Z" transform="matrix(-0.788, -0.616, 0.616, -0.788, 447.958, 367.55)" fill="#585974"/>
          </g>
        </g>
        <g id="Group_43-5" data-name="Group 43">
          <g id="Group_25-10" data-name="Group 25" transform="translate(0 88)">
            <g id="Group_19-10" data-name="Group 19" transform="translate(-318 -176)">
              <rect id="Rectangle_7-5" data-name="Rectangle 7" width="327" height="68" rx="10" transform="translate(342 300)" fill="#898aa6"/>
              <rect id="Rectangle_8-10" data-name="Rectangle 8" width="56" height="52" rx="10" transform="translate(350 308)" fill="#c9bbcf"/>
            </g>
            <g id="Group_20-10" data-name="Group 20" transform="translate(-1 3)">
              <text id="_03-5" data-name="03" transform="translate(49 158)" fill="#fff" font-size="20" font-family="Poppins-SemiBold, Poppins" font-weight="600"><tspan x="0" y="0">03</tspan></text>
              <text id="FEB-5" data-name="FEB" transform="translate(51 170)" fill="#fff" font-size="12" font-family="Poppins-SemiBold, Poppins" font-weight="600"><tspan x="0" y="0">FEB</tspan></text>
            </g>
            <g id="Group_21-10" data-name="Group 21" transform="translate(0 1)">
              <text id="Going_Super_Market_5" data-name="Going Super Market…" transform="translate(98 155)" fill="#fff" font-size="14" font-family="Poppins-SemiBold, Poppins" font-weight="600"><tspan x="0" y="0">Going Super Market…</tspan></text>
              <text id="Buy_vegetables_and_fruits-5" data-name="Buy vegetables and fruits" transform="translate(98 174)" fill="#fff" font-size="10" font-family="Poppins-SemiBold, Poppins" font-weight="600" opacity="0.499"><tspan x="0" y="0">Buy vegetables and fruits</tspan></text>
            </g>
            <circle id="Ellipse_4-10" data-name="Ellipse 4" cx="5" cy="5" r="5" transform="translate(336 129)" fill="#f89e5c"/>
          </g>
          <g id="Group_42-5" data-name="Group 42" transform="translate(-146.41 -106.523)">
            <rect id="Rectangle_11-10" data-name="Rectangle 11" width="5.081" height="24.386" rx="1" transform="matrix(0.799, 0.602, -0.602, 0.799, 461.752, 339.675)" fill="#585974"/>
            <rect id="Rectangle_12-10" data-name="Rectangle 12" width="5.081" height="3.556" rx="1" transform="matrix(0.799, 0.602, -0.602, 0.799, 464.09, 336.523)" fill="#585974"/>
            <path id="Polygon_1-10" data-name="Polygon 1" d="M2.441,1.457a1,1,0,0,1,1.722,0L5.713,4.08a1,1,0,0,1-.861,1.509h-3.1A1,1,0,0,1,.892,4.08Z" transform="matrix(-0.788, -0.616, 0.616, -0.788, 447.958, 367.55)" fill="#585974"/>
          </g>
        </g>
      </g>
      <g transform="translate(6 791)">
        <g id="Group_44-6" data-name="Group 44">
          <g id="Group_29-6" data-name="Group 29">
            <g id="Group_25-11" data-name="Group 25">
              <g id="Group_19-11" data-name="Group 19" transform="translate(-318 -176)">
                <path id="Path_4-6" data-name="Path 4" d="M10,0H317a10,10,0,0,1,10,10V58a10,10,0,0,1-10,10H10A10,10,0,0,1,0,58V10A10,10,0,0,1,10,0Z" transform="translate(342 300)" fill="#898aa6"/>
                <rect id="Rectangle_8-11" data-name="Rectangle 8" width="56" height="52" rx="10" transform="translate(350 308)" fill="#c9bbcf"/>
              </g>
              <g id="Group_20-11" data-name="Group 20" transform="translate(0 3)">
                <text id="_23-6" data-name="23" transform="translate(49 158)" fill="#fff" font-size="20" font-family="Poppins-SemiBold, Poppins" font-weight="600"><tspan x="0" y="0">23</tspan></text>
                <text id="JAN-6" data-name="JAN" transform="translate(48 170)" fill="#fff" font-size="12" font-family="Poppins-SemiBold, Poppins" font-weight="600"><tspan x="0" y="0">JAN</tspan></text>
              </g>
              <g id="Group_21-11" data-name="Group 21" transform="translate(0 1)">
                <text id="Gym-6" data-name="Gym" transform="translate(98 155)" fill="#fff" font-size="14" font-family="Poppins-SemiBold, Poppins" font-weight="600"><tspan x="0" y="0">Gym</tspan></text>
                <text id="_10_push_ups-6" data-name="10 push ups" transform="translate(98 174)" fill="#fff" font-size="10" font-family="Poppins-SemiBold, Poppins" font-weight="600" opacity="0.505"><tspan x="0" y="0">10 push ups</tspan></text>
              </g>
              <circle id="Ellipse_4-11" data-name="Ellipse 4" cx="5" cy="5" r="5" transform="translate(336 129)" fill="#b3e38f"/>
            </g>
          </g>
          <g id="Group_36-6" data-name="Group 36" transform="translate(-143.41 -191.55)">
            <rect id="Rectangle_11-11" data-name="Rectangle 11" width="5.081" height="24.386" rx="1" transform="matrix(0.799, 0.602, -0.602, 0.799, 461.752, 339.675)" fill="#585974"/>
            <rect id="Rectangle_12-11" data-name="Rectangle 12" width="5.081" height="3.556" rx="1" transform="matrix(0.799, 0.602, -0.602, 0.799, 464.09, 336.523)" fill="#585974"/>
            <path id="Polygon_1-11" data-name="Polygon 1" d="M2.441,1.457a1,1,0,0,1,1.722,0L5.713,4.08a1,1,0,0,1-.861,1.509h-3.1A1,1,0,0,1,.892,4.08Z" transform="matrix(-0.788, -0.616, 0.616, -0.788, 447.958, 367.55)" fill="#585974"/>
          </g>
        </g>
        <g id="Group_43-6" data-name="Group 43">
          <g id="Group_25-12" data-name="Group 25" transform="translate(0 88)">
            <g id="Group_19-12" data-name="Group 19" transform="translate(-318 -176)">
              <rect id="Rectangle_7-6" data-name="Rectangle 7" width="327" height="68" rx="10" transform="translate(342 300)" fill="#898aa6"/>
              <rect id="Rectangle_8-12" data-name="Rectangle 8" width="56" height="52" rx="10" transform="translate(350 308)" fill="#c9bbcf"/>
            </g>
            <g id="Group_20-12" data-name="Group 20" transform="translate(-1 3)">
              <text id="_03-6" data-name="03" transform="translate(49 158)" fill="#fff" font-size="20" font-family="Poppins-SemiBold, Poppins" font-weight="600"><tspan x="0" y="0">03</tspan></text>
              <text id="FEB-6" data-name="FEB" transform="translate(51 170)" fill="#fff" font-size="12" font-family="Poppins-SemiBold, Poppins" font-weight="600"><tspan x="0" y="0">FEB</tspan></text>
            </g>
            <g id="Group_21-12" data-name="Group 21" transform="translate(0 1)">
              <text id="Going_Super_Market_6" data-name="Going Super Market…" transform="translate(98 155)" fill="#fff" font-size="14" font-family="Poppins-SemiBold, Poppins" font-weight="600"><tspan x="0" y="0">Going Super Market…</tspan></text>
              <text id="Buy_vegetables_and_fruits-6" data-name="Buy vegetables and fruits" transform="translate(98 174)" fill="#fff" font-size="10" font-family="Poppins-SemiBold, Poppins" font-weight="600" opacity="0.499"><tspan x="0" y="0">Buy vegetables and fruits</tspan></text>
            </g>
            <circle id="Ellipse_4-12" data-name="Ellipse 4" cx="5" cy="5" r="5" transform="translate(336 129)" fill="#f89e5c"/>
          </g>
          <g id="Group_42-6" data-name="Group 42" transform="translate(-146.41 -106.523)">
            <rect id="Rectangle_11-12" data-name="Rectangle 11" width="5.081" height="24.386" rx="1" transform="matrix(0.799, 0.602, -0.602, 0.799, 461.752, 339.675)" fill="#585974"/>
            <rect id="Rectangle_12-12" data-name="Rectangle 12" width="5.081" height="3.556" rx="1" transform="matrix(0.799, 0.602, -0.602, 0.799, 464.09, 336.523)" fill="#585974"/>
            <path id="Polygon_1-12" data-name="Polygon 1" d="M2.441,1.457a1,1,0,0,1,1.722,0L5.713,4.08a1,1,0,0,1-.861,1.509h-3.1A1,1,0,0,1,.892,4.08Z" transform="matrix(-0.788, -0.616, 0.616, -0.788, 447.958, 367.55)" fill="#585974"/>
          </g>
        </g>
      </g>
      <g transform="translate(6 968)">
        <g id="Group_44-7" data-name="Group 44">
          <g id="Group_29-7" data-name="Group 29">
            <g id="Group_25-13" data-name="Group 25">
              <g id="Group_19-13" data-name="Group 19" transform="translate(-318 -176)">
                <path id="Path_4-7" data-name="Path 4" d="M10,0H317a10,10,0,0,1,10,10V58a10,10,0,0,1-10,10H10A10,10,0,0,1,0,58V10A10,10,0,0,1,10,0Z" transform="translate(342 300)" fill="#898aa6"/>
                <rect id="Rectangle_8-13" data-name="Rectangle 8" width="56" height="52" rx="10" transform="translate(350 308)" fill="#c9bbcf"/>
              </g>
              <g id="Group_20-13" data-name="Group 20" transform="translate(0 3)">
                <text id="_23-7" data-name="23" transform="translate(49 158)" fill="#fff" font-size="20" font-family="Poppins-SemiBold, Poppins" font-weight="600"><tspan x="0" y="0">23</tspan></text>
                <text id="JAN-7" data-name="JAN" transform="translate(48 170)" fill="#fff" font-size="12" font-family="Poppins-SemiBold, Poppins" font-weight="600"><tspan x="0" y="0">JAN</tspan></text>
              </g>
              <g id="Group_21-13" data-name="Group 21" transform="translate(0 1)">
                <text id="Gym-7" data-name="Gym" transform="translate(98 155)" fill="#fff" font-size="14" font-family="Poppins-SemiBold, Poppins" font-weight="600"><tspan x="0" y="0">Gym</tspan></text>
                <text id="_10_push_ups-7" data-name="10 push ups" transform="translate(98 174)" fill="#fff" font-size="10" font-family="Poppins-SemiBold, Poppins" font-weight="600" opacity="0.505"><tspan x="0" y="0">10 push ups</tspan></text>
              </g>
              <circle id="Ellipse_4-13" data-name="Ellipse 4" cx="5" cy="5" r="5" transform="translate(336 129)" fill="#b3e38f"/>
            </g>
          </g>
          <g id="Group_36-7" data-name="Group 36" transform="translate(-143.41 -191.55)">
            <rect id="Rectangle_11-13" data-name="Rectangle 11" width="5.081" height="24.386" rx="1" transform="matrix(0.799, 0.602, -0.602, 0.799, 461.752, 339.675)" fill="#585974"/>
            <rect id="Rectangle_12-13" data-name="Rectangle 12" width="5.081" height="3.556" rx="1" transform="matrix(0.799, 0.602, -0.602, 0.799, 464.09, 336.523)" fill="#585974"/>
            <path id="Polygon_1-13" data-name="Polygon 1" d="M2.441,1.457a1,1,0,0,1,1.722,0L5.713,4.08a1,1,0,0,1-.861,1.509h-3.1A1,1,0,0,1,.892,4.08Z" transform="matrix(-0.788, -0.616, 0.616, -0.788, 447.958, 367.55)" fill="#585974"/>
          </g>
        </g>
        <g id="Group_43-7" data-name="Group 43">
          <g id="Group_25-14" data-name="Group 25" transform="translate(0 88)">
            <g id="Group_19-14" data-name="Group 19" transform="translate(-318 -176)">
              <rect id="Rectangle_7-7" data-name="Rectangle 7" width="327" height="68" rx="10" transform="translate(342 300)" fill="#898aa6"/>
              <rect id="Rectangle_8-14" data-name="Rectangle 8" width="56" height="52" rx="10" transform="translate(350 308)" fill="#c9bbcf"/>
            </g>
            <g id="Group_20-14" data-name="Group 20" transform="translate(-1 3)">
              <text id="_03-7" data-name="03" transform="translate(49 158)" fill="#fff" font-size="20" font-family="Poppins-SemiBold, Poppins" font-weight="600"><tspan x="0" y="0">03</tspan></text>
              <text id="FEB-7" data-name="FEB" transform="translate(51 170)" fill="#fff" font-size="12" font-family="Poppins-SemiBold, Poppins" font-weight="600"><tspan x="0" y="0">FEB</tspan></text>
            </g>
            <g id="Group_21-14" data-name="Group 21" transform="translate(0 1)">
              <text id="Going_Super_Market_7" data-name="Going Super Market…" transform="translate(98 155)" fill="#fff" font-size="14" font-family="Poppins-SemiBold, Poppins" font-weight="600"><tspan x="0" y="0">Going Super Market…</tspan></text>
              <text id="Buy_vegetables_and_fruits-7" data-name="Buy vegetables and fruits" transform="translate(98 174)" fill="#fff" font-size="10" font-family="Poppins-SemiBold, Poppins" font-weight="600" opacity="0.499"><tspan x="0" y="0">Buy vegetables and fruits</tspan></text>
            </g>
            <circle id="Ellipse_4-14" data-name="Ellipse 4" cx="5" cy="5" r="5" transform="translate(336 129)" fill="#f89e5c"/>
          </g>
          <g id="Group_42-7" data-name="Group 42" transform="translate(-146.41 -106.523)">
            <rect id="Rectangle_11-14" data-name="Rectangle 11" width="5.081" height="24.386" rx="1" transform="matrix(0.799, 0.602, -0.602, 0.799, 461.752, 339.675)" fill="#585974"/>
            <rect id="Rectangle_12-14" data-name="Rectangle 12" width="5.081" height="3.556" rx="1" transform="matrix(0.799, 0.602, -0.602, 0.799, 464.09, 336.523)" fill="#585974"/>
            <path id="Polygon_1-14" data-name="Polygon 1" d="M2.441,1.457a1,1,0,0,1,1.722,0L5.713,4.08a1,1,0,0,1-.861,1.509h-3.1A1,1,0,0,1,.892,4.08Z" transform="matrix(-0.788, -0.616, 0.616, -0.788, 447.958, 367.55)" fill="#585974"/>
          </g>
        </g>
      </g>
    </g>
    <g id="backArrow" transform="translate(-74 -45.079)">
      <path id="Path_5" data-name="Path 5" d="M106.579,125.159,100,118.579,106.579,112" fill="none" stroke="#fff" stroke-linecap="round" stroke-linejoin="round" stroke-width="2.5"/>
      <line id="Line_19" data-name="Line 19" x2="13.47" transform="translate(100.954 118.579)" fill="none" stroke="#fff" stroke-linecap="round" stroke-linejoin="round" stroke-width="2.5"/>
    </g>
  </g>
</svg>
