<svg xmlns="http://www.w3.org/2000/svg" xmlns:xlink="http://www.w3.org/1999/xlink" width="375" height="812" viewBox="0 0 375 812">
  <defs>
    <clipPath id="clip-path">
      <path id="Shape" d="M338.667-26.667h16.667A2.667,2.667,0,0,1,358-24v6h0a2.667,2.667,0,0,1-2.667,2.667H338.667A2.667,2.667,0,0,1,336-18v-6h0A2.667,2.667,0,0,1,338.667-26.667Z" transform="translate(-336 26.667)" fill="none" clip-rule="evenodd"/>
    </clipPath>
    <clipPath id="clip-path-2">
      <path id="Shape-2" data-name="Shape" d="M359-23v4a2.17,2.17,0,0,0,1.328-2A2.17,2.17,0,0,0,359-23" transform="translate(-359 23)" fill="#fff"/>
    </clipPath>
    <clipPath id="clip-path-3">
      <path id="Shape-3" data-name="Shape" d="M339.333-24.667h15.333A1.333,1.333,0,0,1,356-23.333v4.667h0a1.333,1.333,0,0,1-1.333,1.333H339.333A1.333,1.333,0,0,1,338-18.667v-4.667h0A1.333,1.333,0,0,1,339.333-24.667Z" transform="translate(-338 24.667)" fill="#fff"/>
    </clipPath>
    <clipPath id="clip-path-4">
      <path id="Shape-4" data-name="Shape" d="M323.33-24.392a8.64,8.64,0,0,1,5.953,2.378.308.308,0,0,0,.433,0l1.156-1.167a.322.322,0,0,0,.093-.229.322.322,0,0,0-.1-.227,10.9,10.9,0,0,0-15.08,0,.322.322,0,0,0-.1.227.322.322,0,0,0,.093.229l1.156,1.167a.308.308,0,0,0,.433,0,8.641,8.641,0,0,1,5.954-2.378Zm0,3.8a4.907,4.907,0,0,1,3.294,1.27.31.31,0,0,0,.433-.006l1.155-1.167a.322.322,0,0,0,.094-.23.322.322,0,0,0-.1-.229,7.159,7.159,0,0,0-9.752,0,.322.322,0,0,0-.1.229.322.322,0,0,0,.094.23l1.154,1.167a.31.31,0,0,0,.433.006,4.907,4.907,0,0,1,3.292-1.27Zm2.219,2.784a.314.314,0,0,0,.094-.231.314.314,0,0,0-.1-.226,3.422,3.422,0,0,0-4.419,0,.314.314,0,0,0-.1.226.314.314,0,0,0,.094.231l2,2.016a.311.311,0,0,0,.222.093.312.312,0,0,0,.222-.093Z" transform="translate(-315.694 26.669)" fill="#fff"/>
    </clipPath>
    <clipPath id="clip-path-5">
      <path id="Shape-5" data-name="Shape" d="M294.667-19.667h1a1,1,0,0,1,1,1v2a1,1,0,0,1-1,1h-1a1,1,0,0,1-1-1v-2a1,1,0,0,1,1-1Zm4.667-2h1a1,1,0,0,1,1,1v4a1,1,0,0,1-1,1h-1a1,1,0,0,1-1-1v-4A1,1,0,0,1,299.333-21.667ZM304-24h1a1,1,0,0,1,1,1v6.333a1,1,0,0,1-1,1h-1a1,1,0,0,1-1-1V-23A1,1,0,0,1,304-24Zm4.667-2.333h1a1,1,0,0,1,1,1v8.667a1,1,0,0,1-1,1h-1a1,1,0,0,1-1-1v-8.667a1,1,0,0,1,1-1Z" transform="translate(-293.667 26.333)" fill="#fff"/>
    </clipPath>
    <clipPath id="clip-Home_1">
      <rect width="375" height="812"/>
    </clipPath>
  </defs>
  <g id="Home_1" data-name="Home – 1" clip-path="url(#clip-Home_1)">
    <rect width="375" height="812" fill="#212126"/>
    <rect id="Rectangle_1" data-name="Rectangle 1" width="375" height="100" fill="#212126"/>
    <g id="top" transform="translate(0 2)" opacity="0.449">
      <path id="bg" d="M0-44H375v24.7H0Z" transform="translate(0 44)" fill="none"/>
      <g id="status_bar_dark" data-name="status bar/dark">
        <path id="Background" d="M0-44H375v24.7H0Z" transform="translate(0 44)" fill="none"/>
        <g id="Battery" transform="translate(336 7.095)">
          <g id="Border" clip-path="url(#clip-path)">
            <path id="Fill" d="M2.667,0H19.333A2.667,2.667,0,0,1,22,2.667v6h0a2.667,2.667,0,0,1-2.667,2.667H2.667A2.667,2.667,0,0,1,0,8.667v-6H0A2.667,2.667,0,0,1,2.667,0Z" fill="none" stroke="rgba(255,255,255,0.35)" stroke-width="2"/>
          </g>
          <g id="Cap" transform="translate(23 3.667)" clip-path="url(#clip-path-2)">
            <path id="Fill-2" data-name="Fill" d="M354-28h11.328v14H354Z" transform="translate(-359 23)" fill="#fff"/>
          </g>
          <g id="Capacity" transform="translate(2 2)" clip-path="url(#clip-path-3)">
            <path id="Fill-3" data-name="Fill" d="M333-29.667h28v17.333H333Z" transform="translate(-338 24.667)" fill="#fff"/>
          </g>
        </g>
        <g id="Wifi" transform="translate(315.694 7.208)">
          <g id="Wifi-2" data-name="Wifi" clip-path="url(#clip-path-4)">
            <path id="Fill-4" data-name="Fill" d="M310.694-31.669h25.272V-10.7H310.694Z" transform="translate(-315.694 26.669)" fill="#fff"/>
          </g>
        </g>
        <g id="Cellular_Connection" data-name="Cellular Connection" transform="translate(293.667 7.44)">
          <g id="Cellular_Connection-2" data-name="Cellular Connection" clip-path="url(#clip-path-5)">
            <path id="Fill-5" data-name="Fill" d="M288.667-31.333h27v20.667h-27Z" transform="translate(-293.667 26.333)" fill="#fff"/>
          </g>
        </g>
        <g id="Bars___Time_Black" data-name="Bars/_/Time Black" transform="translate(32.823 8.485)">
          <path id="_Time" data-name="↳ Time" d="M16.433,13.239c2.509,0,4-1.962,4-5.284a6.336,6.336,0,0,0-.7-3.117A3.5,3.5,0,0,0,16.487,2.89a3.43,3.43,0,0,0-3.664,3.466A3.159,3.159,0,0,0,16.07,9.637,2.727,2.727,0,0,0,18.627,8.16h.116c0,2.256-.854,3.6-2.3,3.6a1.716,1.716,0,0,1-1.729-1.21H12.96A3.324,3.324,0,0,0,16.433,13.239Zm.062-5A1.865,1.865,0,0,1,14.553,6.3a1.948,1.948,0,1,1,3.9.027A1.874,1.874,0,0,1,16.494,8.235Zm7.038,3.719a1.08,1.08,0,1,0-1.094-1.08A1.048,1.048,0,0,0,23.532,11.954Zm0-5.127a1.043,1.043,0,0,0,1.094-1.073,1.094,1.094,0,0,0-2.187,0A1.047,1.047,0,0,0,23.532,6.827ZM31.445,13h1.688V11.161h1.333V9.671H33.134V3.136H30.646c-1.743,2.625-3.131,4.819-4.02,6.453v1.572h4.819ZM28.26,9.609c1.148-2.023,2.174-3.644,3.117-5.038h.1V9.712H28.26ZM38.511,13h1.764V3.136H38.518L35.94,4.94v1.7l2.454-1.723h.116Z" transform="translate(-12.823 -2.89)" fill="#fff"/>
        </g>
      </g>
    </g>
    <text id="To_Do_s" data-name="To Do’s" transform="translate(159 79)" fill="#fff" font-size="16" font-family="Poppins-SemiBold, Poppins" font-weight="600"><tspan x="0" y="0">To Do’s</tspan></text>
    <path id="Rectangle_2" data-name="Rectangle 2" d="M20,0H355a20,20,0,0,1,20,20V578a0,0,0,0,1,0,0H0a0,0,0,0,1,0,0V20A20,20,0,0,1,20,0Z" transform="translate(0 234)" fill="#474750"/>
    <text id="_10" data-name="10" transform="translate(164 170)" fill="#fff" font-size="48" font-family="Poppins-SemiBold, Poppins" font-weight="600"><tspan x="0" y="0">10</tspan></text>
    <text id="Total" transform="translate(168 193)" fill="#fff" font-size="16" font-family="Poppins-SemiBold, Poppins" font-weight="600"><tspan x="0" y="0">Total</tspan></text>
    <text id="Action_s" data-name="Action’s" transform="translate(155 266)" fill="#fff" font-size="16" font-family="Poppins-SemiBold, Poppins" font-weight="600"><tspan x="0" y="0">Action’s</tspan></text>
    <g id="Group_4" data-name="Group 4" transform="translate(-306 -8)">
      <path id="Path_2" data-name="Path 2" d="M20,0h86a20,20,0,0,1,20,20v93a20,20,0,0,1-20,20H20A20,20,0,0,1,0,113V20A20,20,0,0,1,20,0Z" transform="translate(342 300)" fill="#212126"/>
      <path id="Rectangle_8" data-name="Rectangle 8" d="M20,0h86a20,20,0,0,1,20,20V52a0,0,0,0,1,0,0H0a0,0,0,0,1,0,0V20A20,20,0,0,1,20,0Z" transform="translate(342 300)" fill="#2292e2"/>
      <text id="Add_ToDo_s" data-name="Add ToDo’s" transform="translate(365 331)" fill="#fff" font-size="14" font-family="Poppins-SemiBold, Poppins" font-weight="600"><tspan x="0" y="0">Add ToDo’s</tspan></text>
      <path id="Subtraction_1" data-name="Subtraction 1" d="M18,48H6a6.007,6.007,0,0,1-6-6V6A6.007,6.007,0,0,1,6,0H31a6.007,6.007,0,0,1,6,6V25.73A15,15,0,0,0,15,39a14.873,14.873,0,0,0,3,9Z" transform="translate(383 367)" fill="#474750"/>
      <circle id="Ellipse_2" data-name="Ellipse 2" cx="13.5" cy="13.5" r="13.5" transform="translate(400 393)" fill="#2292e2"/>
      <g id="Group_1" data-name="Group 1" transform="translate(-262.362 14.117)">
        <line id="Line_1" data-name="Line 1" y2="8.234" transform="translate(675.5 387.883)" fill="none" stroke="#212126" stroke-linecap="round" stroke-width="2"/>
        <line id="Line_2" data-name="Line 2" y2="8.275" transform="translate(679.638 392) rotate(90)" fill="none" stroke="#212126" stroke-linecap="round" stroke-width="2"/>
      </g>
      <line id="Line_3" data-name="Line 3" x1="24.5" transform="translate(389.25 376.117)" fill="none" stroke="#212126" stroke-linecap="round" stroke-width="2"/>
      <line id="Line_4" data-name="Line 4" x1="24.5" transform="translate(389.25 380.117)" fill="none" stroke="#212126" stroke-linecap="round" stroke-width="2"/>
      <line id="Line_5" data-name="Line 5" x1="14.25" transform="translate(389.25 384.117)" fill="none" stroke="#212126" stroke-linecap="round" stroke-width="2"/>
    </g>
    <g id="Group_11" data-name="Group 11" transform="translate(-62 26)">
      <g id="Group_3" data-name="Group 3" transform="translate(-67 -34)">
        <rect id="Rectangle_7" data-name="Rectangle 7" width="126" height="133" rx="20" transform="translate(342 300)" fill="#212126"/>
        <path id="Rectangle_8-2" data-name="Rectangle 8" d="M20,0h86a20,20,0,0,1,20,20V52a0,0,0,0,1,0,0H0a0,0,0,0,1,0,0V20A20,20,0,0,1,20,0Z" transform="translate(342 300)" fill="#2292e2"/>
        <text id="Show_ToDo_s" data-name="Show ToDo’s" transform="translate(361 331)" fill="#fff" font-size="14" font-family="Poppins-SemiBold, Poppins" font-weight="600"><tspan x="0" y="0">Show ToDo’s</tspan></text>
      </g>
      <rect id="Rectangle_10" data-name="Rectangle 10" width="37" height="48" rx="6" transform="translate(320 333)" fill="#474750"/>
      <line id="Line_6" data-name="Line 6" x1="24.5" transform="translate(325.25 342.117)" fill="none" stroke="#212126" stroke-linecap="round" stroke-width="2"/>
      <line id="Line_7" data-name="Line 7" x1="24.5" transform="translate(325.25 346.117)" fill="none" stroke="#212126" stroke-linecap="round" stroke-width="2"/>
      <line id="Line_9" data-name="Line 9" x1="24.5" transform="translate(325.25 354.117)" fill="none" stroke="#212126" stroke-linecap="round" stroke-width="2"/>
      <line id="Line_10" data-name="Line 10" x1="24.5" transform="translate(325.25 358.117)" fill="none" stroke="#212126" stroke-linecap="round" stroke-width="2"/>
      <line id="Line_11" data-name="Line 11" x1="12.25" transform="translate(337.5 362.117)" fill="none" stroke="#212126" stroke-linecap="round" stroke-width="2"/>
      <line id="Line_12" data-name="Line 12" x1="12.25" transform="translate(337.5 366.117)" fill="none" stroke="#212126" stroke-linecap="round" stroke-width="2"/>
      <line id="Line_13" data-name="Line 13" x1="12.25" transform="translate(337.5 370.117)" fill="none" stroke="#212126" stroke-linecap="round" stroke-width="2"/>
      <line id="Line_14" data-name="Line 14" x1="24.25" transform="translate(325.5 374.117)" fill="none" stroke="#212126" stroke-linecap="round" stroke-width="2"/>
      <line id="Line_8" data-name="Line 8" x1="14.25" transform="translate(325.25 350.117)" fill="none" stroke="#212126" stroke-linecap="round" stroke-width="2"/>
    </g>
    <g id="Group_15" data-name="Group 15" transform="translate(-245 161)">
      <g id="Group_10" data-name="Group 10" transform="translate(6 33)">
        <g id="Group_3-2" data-name="Group 3" transform="translate(-67 -34)">
          <rect id="Rectangle_7-2" data-name="Rectangle 7" width="126" height="133" rx="20" transform="translate(342 300)" fill="#212126"/>
          <path id="Rectangle_8-3" data-name="Rectangle 8" d="M20,0h86a20,20,0,0,1,20,20V52a0,0,0,0,1,0,0H0a0,0,0,0,1,0,0V20A20,20,0,0,1,20,0Z" transform="translate(342 300)" fill="#2292e2"/>
          <text id="Update_ToDo_s" data-name="Update ToDo’s" transform="translate(354 331)" fill="#fff" font-size="14" font-family="Poppins-SemiBold, Poppins" font-weight="600"><tspan x="0" y="0">Update ToDo’s</tspan></text>
        </g>
      </g>
      <g id="Group_13" data-name="Group 13" transform="translate(-120.753 28.977)">
        <rect id="Rectangle_11" data-name="Rectangle 11" width="8.721" height="41.859" rx="2" transform="matrix(0.799, 0.602, -0.602, 0.799, 475.364, 341.933)" fill="#474750"/>
        <rect id="Rectangle_12" data-name="Rectangle 12" width="8.721" height="6.104" rx="2" transform="matrix(0.799, 0.602, -0.602, 0.799, 479.377, 336.523)" fill="#474750"/>
        <path id="Polygon_1" data-name="Polygon 1" d="M3.946,2.914a2,2,0,0,1,3.444,0L9.554,6.575A2,2,0,0,1,7.832,9.593H3.5A2,2,0,0,1,1.783,6.575Z" transform="matrix(-0.788, -0.616, 0.616, -0.788, 451.686, 389.78)" fill="#474750"/>
      </g>
    </g>
    <g id="Group_18" data-name="Group 18">
      <g id="Group_14" data-name="Group 14" transform="translate(-68 161)">
        <g id="Group_10-2" data-name="Group 10" transform="translate(6 33)">
          <g id="Group_3-3" data-name="Group 3" transform="translate(-67 -34)">
            <rect id="Rectangle_7-3" data-name="Rectangle 7" width="126" height="133" rx="20" transform="translate(342 300)" fill="#212126"/>
            <path id="Rectangle_8-4" data-name="Rectangle 8" d="M20,0h86a20,20,0,0,1,20,20V52a0,0,0,0,1,0,0H0a0,0,0,0,1,0,0V20A20,20,0,0,1,20,0Z" transform="translate(342 300)" fill="#2292e2"/>
            <text id="Delete_ToDo_s" data-name="Delete ToDo’s" transform="translate(357 331)" fill="#fff" font-size="14" font-family="Poppins-SemiBold, Poppins" font-weight="600"><tspan x="0" y="0">Delete ToDo’s</tspan></text>
          </g>
        </g>
      </g>
      <path id="Union_2" data-name="Union 2" d="M2.5,8.015a2.5,2.5,0,1,1,0-5H6.427L7.9.5A1,1,0,0,1,9.041.04,1.024,1.024,0,0,1,9.26.015h15a1.031,1.031,0,0,1,.219.024A1,1,0,0,1,25.624.5l1.47,2.52H31.5a2.5,2.5,0,1,1,0,5Z" transform="translate(259 530.058)" fill="#474750"/>
      <rect id="Rectangle_15" data-name="Rectangle 15" width="28" height="34" rx="3" transform="translate(262 540.074)" fill="#474750"/>
      <line id="Line_15" data-name="Line 15" x1="24.5" transform="translate(268.5 544.824) rotate(90)" fill="none" stroke="#212126" stroke-linecap="round" stroke-width="1"/>
      <line id="Line_16" data-name="Line 16" x1="24.5" transform="translate(283.5 544.824) rotate(90)" fill="none" stroke="#212126" stroke-linecap="round" stroke-width="1"/>
      <line id="Line_17" data-name="Line 17" x1="24.5" transform="translate(276 544.824) rotate(90)" fill="none" stroke="#212126" stroke-linecap="round" stroke-width="1"/>
      <line id="Line_18" data-name="Line 18" x1="15.75" transform="translate(267.75 534.066)" fill="none" stroke="#212126" stroke-linecap="round" stroke-width="1"/>
    </g>
  </g>
</svg>
