<svg xmlns="http://www.w3.org/2000/svg" xmlns:xlink="http://www.w3.org/1999/xlink" width="375" height="812" viewBox="0 0 375 812">
  <defs>
    <clipPath id="clip-path">
      <path id="Shape" d="M338.667-26.667h16.667A2.667,2.667,0,0,1,358-24v6h0a2.667,2.667,0,0,1-2.667,2.667H338.667A2.667,2.667,0,0,1,336-18v-6h0A2.667,2.667,0,0,1,338.667-26.667Z" transform="translate(-336 26.667)" fill="none" clip-rule="evenodd"/>
    </clipPath>
    <clipPath id="clip-path-2">
      <path id="Shape-2" data-name="Shape" d="M359-23v4a2.17,2.17,0,0,0,1.328-2A2.17,2.17,0,0,0,359-23" transform="translate(-359 23)" fill="#fff"/>
    </clipPath>
    <clipPath id="clip-path-3">
      <path id="Shape-3" data-name="Shape" d="M339.333-24.667h15.333A1.333,1.333,0,0,1,356-23.333v4.667h0a1.333,1.333,0,0,1-1.333,1.333H339.333A1.333,1.333,0,0,1,338-18.667v-4.667h0A1.333,1.333,0,0,1,339.333-24.667Z" transform="translate(-338 24.667)" fill="#fff"/>
    </clipPath>
    <clipPath id="clip-path-4">
      <path id="Shape-4" data-name="Shape" d="M323.33-24.392a8.64,8.64,0,0,1,5.953,2.378.308.308,0,0,0,.433,0l1.156-1.167a.322.322,0,0,0,.093-.229.322.322,0,0,0-.1-.227,10.9,10.9,0,0,0-15.08,0,.322.322,0,0,0-.1.227.322.322,0,0,0,.093.229l1.156,1.167a.308.308,0,0,0,.433,0,8.641,8.641,0,0,1,5.954-2.378Zm0,3.8a4.907,4.907,0,0,1,3.294,1.27.31.31,0,0,0,.433-.006l1.155-1.167a.322.322,0,0,0,.094-.23.322.322,0,0,0-.1-.229,7.159,7.159,0,0,0-9.752,0,.322.322,0,0,0-.1.229.322.322,0,0,0,.094.23l1.154,1.167a.31.31,0,0,0,.433.006,4.907,4.907,0,0,1,3.292-1.27Zm2.219,2.784a.314.314,0,0,0,.094-.231.314.314,0,0,0-.1-.226,3.422,3.422,0,0,0-4.419,0,.314.314,0,0,0-.1.226.314.314,0,0,0,.094.231l2,2.016a.311.311,0,0,0,.222.093.312.312,0,0,0,.222-.093Z" transform="translate(-315.694 26.669)" fill="#fff"/>
    </clipPath>
    <clipPath id="clip-path-5">
      <path id="Shape-5" data-name="Shape" d="M294.667-19.667h1a1,1,0,0,1,1,1v2a1,1,0,0,1-1,1h-1a1,1,0,0,1-1-1v-2a1,1,0,0,1,1-1Zm4.667-2h1a1,1,0,0,1,1,1v4a1,1,0,0,1-1,1h-1a1,1,0,0,1-1-1v-4A1,1,0,0,1,299.333-21.667ZM304-24h1a1,1,0,0,1,1,1v6.333a1,1,0,0,1-1,1h-1a1,1,0,0,1-1-1V-23A1,1,0,0,1,304-24Zm4.667-2.333h1a1,1,0,0,1,1,1v8.667a1,1,0,0,1-1,1h-1a1,1,0,0,1-1-1v-8.667a1,1,0,0,1,1-1Z" transform="translate(-293.667 26.333)" fill="#fff"/>
    </clipPath>
    <clipPath id="clip-Update_todo_2">
      <rect width="375" height="812"/>
    </clipPath>
  </defs>
  <g id="Update_todo_2" data-name="Update todo – 2" clip-path="url(#clip-Update_todo_2)">
    <rect width="375" height="812" fill="#212126"/>
    <rect id="Rectangle_1" data-name="Rectangle 1" width="375" height="100" fill="#212126"/>
    <g id="top" transform="translate(0 2)" opacity="0.449">
      <path id="bg" d="M0-44H375v24.7H0Z" transform="translate(0 44)" fill="none"/>
      <g id="status_bar_dark" data-name="status bar/dark">
        <path id="Background" d="M0-44H375v24.7H0Z" transform="translate(0 44)" fill="none"/>
        <g id="Battery" transform="translate(336 7.095)">
          <g id="Border" clip-path="url(#clip-path)">
            <path id="Fill" d="M2.667,0H19.333A2.667,2.667,0,0,1,22,2.667v6h0a2.667,2.667,0,0,1-2.667,2.667H2.667A2.667,2.667,0,0,1,0,8.667v-6H0A2.667,2.667,0,0,1,2.667,0Z" fill="none" stroke="rgba(255,255,255,0.35)" stroke-width="2"/>
          </g>
          <g id="Cap" transform="translate(23 3.667)" clip-path="url(#clip-path-2)">
            <path id="Fill-2" data-name="Fill" d="M354-28h11.328v14H354Z" transform="translate(-359 23)" fill="#fff"/>
          </g>
          <g id="Capacity" transform="translate(2 2)" clip-path="url(#clip-path-3)">
            <path id="Fill-3" data-name="Fill" d="M333-29.667h28v17.333H333Z" transform="translate(-338 24.667)" fill="#fff"/>
          </g>
        </g>
        <g id="Wifi" transform="translate(315.694 7.208)">
          <g id="Wifi-2" data-name="Wifi" clip-path="url(#clip-path-4)">
            <path id="Fill-4" data-name="Fill" d="M310.694-31.669h25.272V-10.7H310.694Z" transform="translate(-315.694 26.669)" fill="#fff"/>
          </g>
        </g>
        <g id="Cellular_Connection" data-name="Cellular Connection" transform="translate(293.667 7.44)">
          <g id="Cellular_Connection-2" data-name="Cellular Connection" clip-path="url(#clip-path-5)">
            <path id="Fill-5" data-name="Fill" d="M288.667-31.333h27v20.667h-27Z" transform="translate(-293.667 26.333)" fill="#fff"/>
          </g>
        </g>
        <g id="Bars___Time_Black" data-name="Bars/_/Time Black" transform="translate(32.823 8.485)">
          <path id="_Time" data-name="↳ Time" d="M16.433,13.239c2.509,0,4-1.962,4-5.284a6.336,6.336,0,0,0-.7-3.117A3.5,3.5,0,0,0,16.487,2.89a3.43,3.43,0,0,0-3.664,3.466A3.159,3.159,0,0,0,16.07,9.637,2.727,2.727,0,0,0,18.627,8.16h.116c0,2.256-.854,3.6-2.3,3.6a1.716,1.716,0,0,1-1.729-1.21H12.96A3.324,3.324,0,0,0,16.433,13.239Zm.062-5A1.865,1.865,0,0,1,14.553,6.3a1.948,1.948,0,1,1,3.9.027A1.874,1.874,0,0,1,16.494,8.235Zm7.038,3.719a1.08,1.08,0,1,0-1.094-1.08A1.048,1.048,0,0,0,23.532,11.954Zm0-5.127a1.043,1.043,0,0,0,1.094-1.073,1.094,1.094,0,0,0-2.187,0A1.047,1.047,0,0,0,23.532,6.827ZM31.445,13h1.688V11.161h1.333V9.671H33.134V3.136H30.646c-1.743,2.625-3.131,4.819-4.02,6.453v1.572h4.819ZM28.26,9.609c1.148-2.023,2.174-3.644,3.117-5.038h.1V9.712H28.26ZM38.511,13h1.764V3.136H38.518L35.94,4.94v1.7l2.454-1.723h.116Z" transform="translate(-12.823 -2.89)" fill="#fff"/>
        </g>
      </g>
    </g>
    <text id="Update_To_Do_s" data-name="Update To Do’s" transform="translate(127 79)" fill="#fff" font-size="16" font-family="Poppins-SemiBold, Poppins" font-weight="600"><tspan x="0" y="0">Update To Do’s</tspan></text>
    <path id="Rectangle_2" data-name="Rectangle 2" d="M20,0H355a20,20,0,0,1,20,20V712a0,0,0,0,1,0,0H0a0,0,0,0,1,0,0V20A20,20,0,0,1,20,0Z" transform="translate(0 100)" fill="#474750"/>
    <g id="Group_55" data-name="Group 55">
      <text id="Add_Todo" data-name="Add Todo" transform="translate(27 162)" fill="#fff" font-size="10" font-family="Poppins-SemiBold, Poppins" font-weight="600"><tspan x="0" y="0">Add Todo</tspan></text>
      <text id="Description" transform="translate(27 246)" fill="#fff" font-size="10" font-family="Poppins-SemiBold, Poppins" font-weight="600"><tspan x="0" y="0">Description</tspan></text>
      <text id="Date" transform="translate(27 330)" fill="#fff" font-size="10" font-family="Poppins-SemiBold, Poppins" font-weight="600"><tspan x="0" y="0">Date</tspan></text>
      <g id="Group_45" data-name="Group 45" transform="translate(-318 -134.215)">
        <rect id="Rectangle_7" data-name="Rectangle 7" width="327" height="43" rx="5" transform="translate(342 300.215)" fill="#212126"/>
      </g>
      <g id="Group_46" data-name="Group 46" transform="translate(-318 -50.215)">
        <rect id="Rectangle_7-2" data-name="Rectangle 7" width="327" height="43" rx="5" transform="translate(342 300.215)" fill="#212126"/>
      </g>
      <g id="Group_47" data-name="Group 47" transform="translate(-318 33.785)">
        <rect id="Rectangle_7-3" data-name="Rectangle 7" width="327" height="43" rx="5" transform="translate(342 300.215)" fill="#212126"/>
      </g>
      <g id="Group_50" data-name="Group 50" transform="translate(-2 79)">
        <g id="Group_48" data-name="Group 48" transform="translate(-307 61.785)">
          <rect id="Rectangle_7-4" data-name="Rectangle 7" width="16" height="16" rx="5" transform="translate(342 300.215)" fill="#212126"/>
        </g>
        <text id="In_Complete" data-name="In Complete" transform="translate(56 375)" fill="#fff" font-size="16" font-family="Poppins-SemiBold, Poppins" font-weight="600"><tspan x="0" y="0">In Complete</tspan></text>
      </g>
      <g id="Group_54" data-name="Group 54" transform="translate(0 26)">
        <g id="Group_49" data-name="Group 49" transform="translate(-2 19)">
          <g id="Group_48-2" data-name="Group 48" transform="translate(-307 61.785)">
            <rect id="Rectangle_7-5" data-name="Rectangle 7" width="16" height="16" rx="5" transform="translate(342 300.215)" fill="#212126"/>
          </g>
          <text id="Completed" transform="translate(56 375)" fill="#fff" font-size="16" font-family="Poppins-SemiBold, Poppins" font-weight="600"><tspan x="0" y="0">Completed</tspan></text>
        </g>
        <path id="Path_1" data-name="Path 1" d="M-558.085,1523.281l-4.789,5.157-2.07-2.161" transform="translate(602.444 -1136.781)" fill="none" stroke="#fff" stroke-linecap="round" stroke-linejoin="round" stroke-width="2"/>
      </g>
    </g>
    <g id="Group_52" data-name="Group 52" transform="translate(0 10)">
      <circle id="Ellipse_4" data-name="Ellipse 4" cx="5" cy="5" r="5" transform="translate(337 104)" fill="#7fea2e"/>
      <path id="Path_48617" data-name="Path 48617" d="M5,0A5,5,0,1,1,0,5,5,5,0,0,1,5,0Z" transform="translate(337 123)" fill="#f47e27"/>
      <text id="Completed-2" data-name="Completed" transform="translate(289 112)" fill="#fff" font-size="8" font-family="Poppins-SemiBold, Poppins" font-weight="600"><tspan x="0" y="0">Completed</tspan></text>
      <text id="InComplete" transform="translate(287 130)" fill="#fff" font-size="8" font-family="Poppins-SemiBold, Poppins" font-weight="600"><tspan x="0" y="0">InComplete</tspan></text>
    </g>
    <g id="Group_53" data-name="Group 53" transform="translate(-216.726 424.915)">
      <rect id="Rectangle_7-6" data-name="Rectangle 7" width="126" height="47" rx="23.5" transform="translate(341.726 300.085)" fill="#2292e2"/>
    </g>
    <text id="Update" transform="translate(162 754)" fill="#fff" font-size="14" font-family="Poppins-SemiBold, Poppins" font-weight="600"><tspan x="0" y="0">Update</tspan></text>
    <g id="backArrow" transform="translate(-76 -45.079)">
      <path id="Path_5" data-name="Path 5" d="M106.579,125.159,100,118.579,106.579,112" fill="none" stroke="#fff" stroke-linecap="round" stroke-linejoin="round" stroke-width="2.5"/>
      <line id="Line_19" data-name="Line 19" x2="13.47" transform="translate(100.954 118.579)" fill="none" stroke="#fff" stroke-linecap="round" stroke-linejoin="round" stroke-width="2.5"/>
    </g>
    <text id="Going_Super_Market_and_take_break" data-name="Going Super Market and take break" transform="translate(31 193)" fill="#fff" font-size="14" font-family="Poppins-SemiBold, Poppins" font-weight="600"><tspan x="0" y="0">Going Super Market and take break</tspan></text>
    <text id="Buy_vegetables_and_fruits" data-name="Buy vegetables and fruits" transform="translate(31 277)" fill="#fff" font-size="14" font-family="Poppins-SemiBold, Poppins" font-weight="600"><tspan x="0" y="0">Buy vegetables and fruits</tspan></text>
    <text id="_03_Fab_2022" data-name="03 Fab 2022" transform="translate(31 361)" fill="#fff" font-size="14" font-family="Poppins-SemiBold, Poppins" font-weight="600"><tspan x="0" y="0">03 Fab 2022</tspan></text>
  </g>
</svg>
